<mxfile host="app.diagrams.net" modified="2021-02-08T11:32:46.700Z" agent="5.0 (Windows NT 10.0; Win64; x64) AppleWebKit/537.36 (KHTML, like Gecko) Chrome/88.0.4324.150 Safari/537.36 Edg/88.0.705.63" etag="KZVRqAWLUZbgIyOzzkZB" version="14.2.9" type="github">
  <diagram id="09jijmmeEL49xiMSb2o-" name="Page-1">
    <mxGraphModel dx="2130" dy="913" grid="1" gridSize="10" guides="1" tooltips="1" connect="1" arrows="1" fold="1" page="1" pageScale="1" pageWidth="1169" pageHeight="827" math="0" shadow="0">
      <root>
        <mxCell id="0" />
        <mxCell id="1" parent="0" />
        <mxCell id="DUrG6-pXYDQIY_fJw-mi-1" style="edgeStyle=orthogonalEdgeStyle;rounded=0;orthogonalLoop=1;jettySize=auto;html=1;exitX=0.5;exitY=0;exitDx=0;exitDy=0;entryX=0.119;entryY=1;entryDx=0;entryDy=0;entryPerimeter=0;dashed=1;endArrow=none;endFill=0;" parent="1" source="DUrG6-pXYDQIY_fJw-mi-4" target="DUrG6-pXYDQIY_fJw-mi-14" edge="1">
          <mxGeometry relative="1" as="geometry">
            <Array as="points">
              <mxPoint x="270" y="730" />
              <mxPoint x="439" y="730" />
            </Array>
          </mxGeometry>
        </mxCell>
        <mxCell id="4nNfvsDVkFAxNqIKHBWq-24" style="edgeStyle=orthogonalEdgeStyle;rounded=0;orthogonalLoop=1;jettySize=auto;html=1;entryX=0.469;entryY=0.977;entryDx=0;entryDy=0;entryPerimeter=0;endArrow=none;endFill=0;dashed=1;" parent="1" source="DUrG6-pXYDQIY_fJw-mi-4" target="DUrG6-pXYDQIY_fJw-mi-10" edge="1">
          <mxGeometry relative="1" as="geometry" />
        </mxCell>
        <mxCell id="4nNfvsDVkFAxNqIKHBWq-25" style="edgeStyle=orthogonalEdgeStyle;rounded=0;orthogonalLoop=1;jettySize=auto;html=1;entryX=-0.004;entryY=0.688;entryDx=0;entryDy=0;entryPerimeter=0;dashed=1;endArrow=none;endFill=0;" parent="1" source="DUrG6-pXYDQIY_fJw-mi-4" target="4nNfvsDVkFAxNqIKHBWq-4" edge="1">
          <mxGeometry relative="1" as="geometry" />
        </mxCell>
        <mxCell id="DUrG6-pXYDQIY_fJw-mi-4" value="ReviewBean" style="swimlane;fontStyle=1;align=center;verticalAlign=top;childLayout=stackLayout;horizontal=1;startSize=26;horizontalStack=0;resizeParent=1;resizeParentMax=0;resizeLast=0;collapsible=1;marginBottom=0;" parent="1" vertex="1">
          <mxGeometry x="110" y="866" width="160" height="34" as="geometry" />
        </mxCell>
        <mxCell id="DUrG6-pXYDQIY_fJw-mi-5" value="" style="line;strokeWidth=1;fillColor=none;align=left;verticalAlign=middle;spacingTop=-1;spacingLeft=3;spacingRight=3;rotatable=0;labelPosition=right;points=[];portConstraint=eastwest;" parent="DUrG6-pXYDQIY_fJw-mi-4" vertex="1">
          <mxGeometry y="26" width="160" height="8" as="geometry" />
        </mxCell>
        <mxCell id="DUrG6-pXYDQIY_fJw-mi-6" value="Guest" style="shape=umlActor;verticalLabelPosition=bottom;verticalAlign=top;html=1;outlineConnect=0;" parent="1" vertex="1">
          <mxGeometry x="50" y="600" width="30" height="60" as="geometry" />
        </mxCell>
        <mxCell id="v1--dcn9XBh3VdgbGKvT-14" style="edgeStyle=orthogonalEdgeStyle;rounded=0;orthogonalLoop=1;jettySize=auto;html=1;entryX=0.5;entryY=1;entryDx=0;entryDy=0;endArrow=none;endFill=0;dashed=1;" parent="1" source="DUrG6-pXYDQIY_fJw-mi-7" target="v1--dcn9XBh3VdgbGKvT-12" edge="1">
          <mxGeometry relative="1" as="geometry" />
        </mxCell>
        <mxCell id="DUrG6-pXYDQIY_fJw-mi-7" value="&lt;&lt;boundary&gt;&gt;&#xa;ReviewHostBoundary" style="swimlane;fontStyle=1;align=center;verticalAlign=top;childLayout=stackLayout;horizontal=1;startSize=40;horizontalStack=0;resizeParent=1;resizeParentMax=0;resizeLast=0;collapsible=1;marginBottom=0;" parent="1" vertex="1">
          <mxGeometry x="130" y="600" width="160" height="100" as="geometry" />
        </mxCell>
        <mxCell id="DUrG6-pXYDQIY_fJw-mi-8" value="+ field: type" style="text;strokeColor=none;fillColor=none;align=left;verticalAlign=top;spacingLeft=4;spacingRight=4;overflow=hidden;rotatable=0;points=[[0,0.5],[1,0.5]];portConstraint=eastwest;" parent="DUrG6-pXYDQIY_fJw-mi-7" vertex="1">
          <mxGeometry y="40" width="160" height="26" as="geometry" />
        </mxCell>
        <mxCell id="DUrG6-pXYDQIY_fJw-mi-9" value="" style="line;strokeWidth=1;fillColor=none;align=left;verticalAlign=middle;spacingTop=-1;spacingLeft=3;spacingRight=3;rotatable=0;labelPosition=right;points=[];portConstraint=eastwest;" parent="DUrG6-pXYDQIY_fJw-mi-7" vertex="1">
          <mxGeometry y="66" width="160" height="8" as="geometry" />
        </mxCell>
        <mxCell id="DUrG6-pXYDQIY_fJw-mi-10" value="+ createHostReview()" style="text;strokeColor=none;fillColor=none;align=left;verticalAlign=top;spacingLeft=4;spacingRight=4;overflow=hidden;rotatable=0;points=[[0,0.5],[1,0.5]];portConstraint=eastwest;" parent="DUrG6-pXYDQIY_fJw-mi-7" vertex="1">
          <mxGeometry y="74" width="160" height="26" as="geometry" />
        </mxCell>
        <mxCell id="v1--dcn9XBh3VdgbGKvT-16" style="edgeStyle=orthogonalEdgeStyle;rounded=0;orthogonalLoop=1;jettySize=auto;html=1;exitX=0.25;exitY=0;exitDx=0;exitDy=0;entryX=0.75;entryY=1;entryDx=0;entryDy=0;dashed=1;endArrow=none;endFill=0;" parent="1" source="DUrG6-pXYDQIY_fJw-mi-11" target="v1--dcn9XBh3VdgbGKvT-12" edge="1">
          <mxGeometry relative="1" as="geometry">
            <Array as="points">
              <mxPoint x="460" y="560" />
              <mxPoint x="250" y="560" />
            </Array>
          </mxGeometry>
        </mxCell>
        <mxCell id="0lNdttf4ZYh0wJYcnRF4-9" style="edgeStyle=orthogonalEdgeStyle;rounded=0;orthogonalLoop=1;jettySize=auto;html=1;entryX=0.5;entryY=0.998;entryDx=0;entryDy=0;entryPerimeter=0;" edge="1" parent="1" source="DUrG6-pXYDQIY_fJw-mi-11" target="0lNdttf4ZYh0wJYcnRF4-4">
          <mxGeometry relative="1" as="geometry" />
        </mxCell>
        <mxCell id="DUrG6-pXYDQIY_fJw-mi-11" value="&lt;&lt;control&gt;&gt;&#xa;ReviewController" style="swimlane;fontStyle=1;align=center;verticalAlign=top;childLayout=stackLayout;horizontal=1;startSize=40;horizontalStack=0;resizeParent=1;resizeParentMax=0;resizeLast=0;collapsible=1;marginBottom=0;" parent="1" vertex="1">
          <mxGeometry x="420" y="600" width="160" height="100" as="geometry" />
        </mxCell>
        <mxCell id="DUrG6-pXYDQIY_fJw-mi-12" value="+ field: type" style="text;strokeColor=none;fillColor=none;align=left;verticalAlign=top;spacingLeft=4;spacingRight=4;overflow=hidden;rotatable=0;points=[[0,0.5],[1,0.5]];portConstraint=eastwest;" parent="DUrG6-pXYDQIY_fJw-mi-11" vertex="1">
          <mxGeometry y="40" width="160" height="26" as="geometry" />
        </mxCell>
        <mxCell id="DUrG6-pXYDQIY_fJw-mi-13" value="" style="line;strokeWidth=1;fillColor=none;align=left;verticalAlign=middle;spacingTop=-1;spacingLeft=3;spacingRight=3;rotatable=0;labelPosition=right;points=[];portConstraint=eastwest;" parent="DUrG6-pXYDQIY_fJw-mi-11" vertex="1">
          <mxGeometry y="66" width="160" height="8" as="geometry" />
        </mxCell>
        <mxCell id="DUrG6-pXYDQIY_fJw-mi-14" value="+ method(type): type" style="text;strokeColor=none;fillColor=none;align=left;verticalAlign=top;spacingLeft=4;spacingRight=4;overflow=hidden;rotatable=0;points=[[0,0.5],[1,0.5]];portConstraint=eastwest;" parent="DUrG6-pXYDQIY_fJw-mi-11" vertex="1">
          <mxGeometry y="74" width="160" height="26" as="geometry" />
        </mxCell>
        <mxCell id="DUrG6-pXYDQIY_fJw-mi-25" style="edgeStyle=orthogonalEdgeStyle;rounded=0;orthogonalLoop=1;jettySize=auto;html=1;exitX=1;exitY=0.5;exitDx=0;exitDy=0;entryX=0;entryY=0.5;entryDx=0;entryDy=0;endArrow=none;endFill=0;" parent="1" source="DUrG6-pXYDQIY_fJw-mi-8" target="DUrG6-pXYDQIY_fJw-mi-12" edge="1">
          <mxGeometry relative="1" as="geometry" />
        </mxCell>
        <mxCell id="4nNfvsDVkFAxNqIKHBWq-7" style="edgeStyle=orthogonalEdgeStyle;rounded=0;orthogonalLoop=1;jettySize=auto;html=1;entryX=0.5;entryY=0.968;entryDx=0;entryDy=0;entryPerimeter=0;endArrow=none;endFill=0;" parent="1" source="4nNfvsDVkFAxNqIKHBWq-3" target="DUrG6-pXYDQIY_fJw-mi-14" edge="1">
          <mxGeometry relative="1" as="geometry" />
        </mxCell>
        <mxCell id="4nNfvsDVkFAxNqIKHBWq-3" value="&lt;&lt;entity&gt;&gt;&#xa;Review" style="swimlane;fontStyle=1;align=center;verticalAlign=top;childLayout=stackLayout;horizontal=1;startSize=40;horizontalStack=0;resizeParent=1;resizeParentMax=0;resizeLast=0;collapsible=1;marginBottom=0;" parent="1" vertex="1">
          <mxGeometry x="310" y="800" width="190" height="340" as="geometry" />
        </mxCell>
        <mxCell id="4nNfvsDVkFAxNqIKHBWq-4" value="- ID: Integer&#xa;- Title: String&#xa;-Â reviewer: Account&#xa;- reviewed: Person&#xa;- rating: Integer&#xa;- description: String&#xa;- tag: String" style="text;strokeColor=none;fillColor=none;align=left;verticalAlign=top;spacingLeft=4;spacingRight=4;overflow=hidden;rotatable=0;points=[[0,0.5],[1,0.5]];portConstraint=eastwest;" parent="4nNfvsDVkFAxNqIKHBWq-3" vertex="1">
          <mxGeometry y="40" width="190" height="110" as="geometry" />
        </mxCell>
        <mxCell id="4nNfvsDVkFAxNqIKHBWq-5" value="" style="line;strokeWidth=1;fillColor=none;align=left;verticalAlign=middle;spacingTop=-1;spacingLeft=3;spacingRight=3;rotatable=0;labelPosition=right;points=[];portConstraint=eastwest;" parent="4nNfvsDVkFAxNqIKHBWq-3" vertex="1">
          <mxGeometry y="150" width="190" height="8" as="geometry" />
        </mxCell>
        <mxCell id="4nNfvsDVkFAxNqIKHBWq-6" value="+ setID(Integer): void&#xa;+ getID(): Integer&#xa;+ getTitle(): String&#xa;+ setTitle(String): void&#xa;+ getReviewer(): Account&#xa;+ setReviewer(Account): void&#xa;+ getReviewed(): Person&#xa;+ setReviewed(Person): void&#xa;+ getDescription(): String&#xa;+ setDescription(String)&#xa;+ getTag(): String&#xa;+ setTag(String): void" style="text;strokeColor=none;fillColor=none;align=left;verticalAlign=top;spacingLeft=4;spacingRight=4;overflow=hidden;rotatable=0;points=[[0,0.5],[1,0.5]];portConstraint=eastwest;" parent="4nNfvsDVkFAxNqIKHBWq-3" vertex="1">
          <mxGeometry y="158" width="190" height="182" as="geometry" />
        </mxCell>
        <mxCell id="4nNfvsDVkFAxNqIKHBWq-22" style="edgeStyle=orthogonalEdgeStyle;rounded=0;orthogonalLoop=1;jettySize=auto;html=1;entryX=1;entryY=0.5;entryDx=0;entryDy=0;endArrow=none;endFill=0;exitX=0.5;exitY=0;exitDx=0;exitDy=0;" parent="1" source="0lNdttf4ZYh0wJYcnRF4-5" target="DUrG6-pXYDQIY_fJw-mi-12" edge="1">
          <mxGeometry relative="1" as="geometry">
            <mxPoint x="820" y="720" as="sourcePoint" />
            <mxPoint x="910" y="653" as="targetPoint" />
          </mxGeometry>
        </mxCell>
        <mxCell id="4nNfvsDVkFAxNqIKHBWq-19" style="edgeStyle=orthogonalEdgeStyle;rounded=0;orthogonalLoop=1;jettySize=auto;html=1;entryX=0.5;entryY=1;entryDx=0;entryDy=0;entryPerimeter=0;endArrow=none;endFill=0;" parent="1" source="4nNfvsDVkFAxNqIKHBWq-15" target="4nNfvsDVkFAxNqIKHBWq-6" edge="1">
          <mxGeometry relative="1" as="geometry" />
        </mxCell>
        <mxCell id="4nNfvsDVkFAxNqIKHBWq-15" value="&lt;&lt;entity&gt;&gt;&#xa;Person" style="swimlane;fontStyle=1;align=center;verticalAlign=top;childLayout=stackLayout;horizontal=1;startSize=40;horizontalStack=0;resizeParent=1;resizeParentMax=0;resizeLast=0;collapsible=1;marginBottom=0;" parent="1" vertex="1">
          <mxGeometry x="305" y="1200" width="200" height="380" as="geometry" />
        </mxCell>
        <mxCell id="4nNfvsDVkFAxNqIKHBWq-16" value="- ID: Integer&#xa;- username: String&#xa;- studyGrade: String&#xa;- school: String&#xa;- account: Account&#xa;- hostRating: Float&#xa;- guestRating: Float&#xa;- reviews: ArrayList&lt;Review&gt;" style="text;strokeColor=none;fillColor=none;align=left;verticalAlign=top;spacingLeft=4;spacingRight=4;overflow=hidden;rotatable=0;points=[[0,0.5],[1,0.5]];portConstraint=eastwest;" parent="4nNfvsDVkFAxNqIKHBWq-15" vertex="1">
          <mxGeometry y="40" width="200" height="120" as="geometry" />
        </mxCell>
        <mxCell id="4nNfvsDVkFAxNqIKHBWq-17" value="" style="line;strokeWidth=1;fillColor=none;align=left;verticalAlign=middle;spacingTop=-1;spacingLeft=3;spacingRight=3;rotatable=0;labelPosition=right;points=[];portConstraint=eastwest;" parent="4nNfvsDVkFAxNqIKHBWq-15" vertex="1">
          <mxGeometry y="160" width="200" height="8" as="geometry" />
        </mxCell>
        <mxCell id="4nNfvsDVkFAxNqIKHBWq-18" value="+ setID(Integer): void&#xa;+ getID(): Integer&#xa;+ setUsername(String): void&#xa;+ getUsername(): String&#xa;+ setSchool(String): void&#xa;+ getSchool(): String&#xa;+ setAccount(Account): void&#xa;+ getAccount(): Account&#xa;+ setHostRating(Float): void&#xa;+ getHostRating(): Float&#xa;+ setGuestRating(Float): void&#xa;+ getGuestRating(): Float&#xa;+ setReviews(Review): void&#xa;+ getReviews(): ArrayList&lt;Review&gt;" style="text;strokeColor=none;fillColor=none;align=left;verticalAlign=top;spacingLeft=4;spacingRight=4;overflow=hidden;rotatable=0;points=[[0,0.5],[1,0.5]];portConstraint=eastwest;" parent="4nNfvsDVkFAxNqIKHBWq-15" vertex="1">
          <mxGeometry y="168" width="200" height="212" as="geometry" />
        </mxCell>
        <mxCell id="v1--dcn9XBh3VdgbGKvT-15" style="edgeStyle=orthogonalEdgeStyle;rounded=0;orthogonalLoop=1;jettySize=auto;html=1;exitX=1;exitY=0.5;exitDx=0;exitDy=0;dashed=1;endArrow=none;endFill=0;" parent="1" source="v1--dcn9XBh3VdgbGKvT-12" edge="1">
          <mxGeometry relative="1" as="geometry">
            <mxPoint x="389" y="378" as="targetPoint" />
          </mxGeometry>
        </mxCell>
        <mxCell id="v1--dcn9XBh3VdgbGKvT-12" value="ReservationBean" style="swimlane;fontStyle=1;align=center;verticalAlign=top;childLayout=stackLayout;horizontal=1;startSize=26;horizontalStack=0;resizeParent=1;resizeParentMax=0;resizeLast=0;collapsible=1;marginBottom=0;" parent="1" vertex="1">
          <mxGeometry x="130" y="360" width="160" height="34" as="geometry" />
        </mxCell>
        <mxCell id="v1--dcn9XBh3VdgbGKvT-13" value="" style="line;strokeWidth=1;fillColor=none;align=left;verticalAlign=middle;spacingTop=-1;spacingLeft=3;spacingRight=3;rotatable=0;labelPosition=right;points=[];portConstraint=eastwest;" parent="v1--dcn9XBh3VdgbGKvT-12" vertex="1">
          <mxGeometry y="26" width="160" height="8" as="geometry" />
        </mxCell>
        <mxCell id="0lNdttf4ZYh0wJYcnRF4-1" value="Reservation" style="swimlane;fontStyle=1;align=center;verticalAlign=top;childLayout=stackLayout;horizontal=1;startSize=40;horizontalStack=0;resizeParent=1;resizeParentMax=0;resizeLast=0;collapsible=1;marginBottom=0;" vertex="1" parent="1">
          <mxGeometry x="390" y="140" width="220" height="370" as="geometry" />
        </mxCell>
        <mxCell id="0lNdttf4ZYh0wJYcnRF4-2" value="- ID: Integer&#xa;- date: DateTime&#xa;- startTime: Time&#xa;- endTime: Time&#xa;- reservingUser: Account&#xa;- linkedRoom: Room&#xa;- roomOwner: Person" style="text;strokeColor=none;fillColor=none;align=left;verticalAlign=top;spacingLeft=4;spacingRight=4;overflow=hidden;rotatable=0;points=[[0,0.5],[1,0.5]];portConstraint=eastwest;" vertex="1" parent="0lNdttf4ZYh0wJYcnRF4-1">
          <mxGeometry y="40" width="220" height="110" as="geometry" />
        </mxCell>
        <mxCell id="0lNdttf4ZYh0wJYcnRF4-3" value="" style="line;strokeWidth=1;fillColor=none;align=left;verticalAlign=middle;spacingTop=-1;spacingLeft=3;spacingRight=3;rotatable=0;labelPosition=right;points=[];portConstraint=eastwest;" vertex="1" parent="0lNdttf4ZYh0wJYcnRF4-1">
          <mxGeometry y="150" width="220" height="8" as="geometry" />
        </mxCell>
        <mxCell id="0lNdttf4ZYh0wJYcnRF4-4" value="+ setID(Integer): voidÂ &#xa;+ getID(): Integer&#xa;+ setDate(DateTime): void&#xa;+ getDate(): DateTime&#xa;+ setStartTime(Time): void&#xa;+ getStartTime(): Time&#xa;+ setEndTime(Time): void&#xa;+ getEndTime(): Time&#xa;+ setReservingUser(Account): void&#xa;+ getReservingUser(): Account&#xa;+ setLinkedRoom(Room): void&#xa;+ getLinkedRoom(): Room&#xa;+Â getRoomOwner(): Person&#xa;+ setRoomOwner(Person): void&#xa;" style="text;strokeColor=none;fillColor=none;align=left;verticalAlign=top;spacingLeft=4;spacingRight=4;overflow=hidden;rotatable=0;points=[[0,0.5],[1,0.5]];portConstraint=eastwest;" vertex="1" parent="0lNdttf4ZYh0wJYcnRF4-1">
          <mxGeometry y="158" width="220" height="212" as="geometry" />
        </mxCell>
        <mxCell id="0lNdttf4ZYh0wJYcnRF4-5" value="Account" style="swimlane;fontStyle=1;align=center;verticalAlign=top;childLayout=stackLayout;horizontal=1;startSize=40;horizontalStack=0;resizeParent=1;resizeParentMax=0;resizeLast=0;collapsible=1;marginBottom=0;" vertex="1" parent="1">
          <mxGeometry x="690" y="730" width="260" height="370" as="geometry" />
        </mxCell>
        <mxCell id="0lNdttf4ZYh0wJYcnRF4-6" value="- CF: String&#xa;- name: String&#xa;- surname: String&#xa;- email: String&#xa;- password: String&#xa;- dateBirth: DateTime&#xa;- numberToken: Integer&#xa;" style="text;strokeColor=none;fillColor=none;align=left;verticalAlign=top;spacingLeft=4;spacingRight=4;overflow=hidden;rotatable=0;points=[[0,0.5],[1,0.5]];portConstraint=eastwest;" vertex="1" parent="0lNdttf4ZYh0wJYcnRF4-5">
          <mxGeometry y="40" width="260" height="110" as="geometry" />
        </mxCell>
        <mxCell id="0lNdttf4ZYh0wJYcnRF4-7" value="" style="line;strokeWidth=1;fillColor=none;align=left;verticalAlign=middle;spacingTop=-1;spacingLeft=3;spacingRight=3;rotatable=0;labelPosition=right;points=[];portConstraint=eastwest;" vertex="1" parent="0lNdttf4ZYh0wJYcnRF4-5">
          <mxGeometry y="150" width="260" height="8" as="geometry" />
        </mxCell>
        <mxCell id="0lNdttf4ZYh0wJYcnRF4-8" value="+ setName(String). void&#xa;+ getName(): String&#xa;+ setSurname(String): void&#xa;+ getSurname(): String&#xa;+ setCF(String): void&#xa;+ getCF(): String&#xa;+ setEmail(String): void&#xa;+ getEmail(): String&#xa;+ setPassword(String): voif&#xa;+ getPassword(): String&#xa;+ setDateBirth(DateTime): void&#xa;+ getDateBirth(): DateTime&#xa;+ setNumberToke(Integer): void&#xa;+ getNumberToken(): Integer" style="text;strokeColor=none;fillColor=none;align=left;verticalAlign=top;spacingLeft=4;spacingRight=4;overflow=hidden;rotatable=0;points=[[0,0.5],[1,0.5]];portConstraint=eastwest;" vertex="1" parent="0lNdttf4ZYh0wJYcnRF4-5">
          <mxGeometry y="158" width="260" height="212" as="geometry" />
        </mxCell>
      </root>
    </mxGraphModel>
  </diagram>
</mxfile>
